<?xml version="1.0" encoding="iso-8859-1"?>
<!-- Generator: Adobe Illustrator 16.0.0, SVG Export Plug-In . SVG Version: 6.00 Build 0)  -->
<!DOCTYPE svg PUBLIC "-//W3C//DTD SVG 1.1//EN" "http://www.w3.org/Graphics/SVG/1.1/DTD/svg11.dtd">
<svg version="1.1" id="Capa_1" xmlns="http://www.w3.org/2000/svg" xmlns:xlink="http://www.w3.org/1999/xlink" x="0px" y="0px"
	 width="612px" height="612px" viewBox="0 0 612 612" style="enable-background:new 0 0 612 612;" xml:space="preserve">
<g>
	<g>
		<path d="M488.375,349.528c21.16,0,38.375-17.215,38.375-38.375s-17.215-38.375-38.375-38.375S450,289.993,450,311.153
			S467.215,349.528,488.375,349.528z M488.375,301.817c5.147,0,9.336,4.188,9.336,9.336c0,5.148-4.188,9.337-9.336,9.337
			s-9.336-4.188-9.336-9.337C479.039,306.005,483.228,301.817,488.375,301.817z"/>
		<path d="M500.495,208.99c-21.551-13.459-44.423-23.837-67.994-30.845c-11.587-3.448-23.363-6.072-35.259-7.885
			c-24.874-24.134-56.709-40.608-92.365-47.734c-28.032-5.604-48.765-3.513-49.636-3.424l-16.089,1.694l14.691,67.875
			c-5.077,2.174-10.124,4.502-15.124,7.008c-32.569,16.285-62.242,38.878-88.366,67.271L0,160.254l45.347,149.779
			c3.323,10.971,3.323,22.57,0,33.541L0,493.353l150.359-102.695c26.125,28.387,55.797,50.986,88.366,67.271
			c37.729,18.867,77.774,28.428,119.017,28.428c19.495,0,39.032-2.197,58.071-6.527l21.693-4.935l-13.258-17.866
			c-19.893-26.812-33.618-54.021-40.81-80.867c-5.675-21.207-7.315-42.284-4.875-62.65c4.117-34.324,18.648-55.389,19.246-56.242
			l17.162-23.002l-28.879-0.053c-0.16,0-0.32,0-0.486,0c-41.923,0-84.101,9.78-122.013,28.298
			c-19.199,9.378-35.543,19.584-49.98,31.207c-11.723,9.443-21.711,20.207-31.367,30.615c-3.584,3.862-7.292,7.855-10.971,11.652
			c-7.695,7.933-16.468,15.675-26.177,23.109l-93.437,63.812l21.468-70.92c4.988-16.475,4.988-33.891,0-50.366l-21.468-70.92
			l79.895,54.571l-18.358,22.736l22.587,18.246l28.097-34.792c52.402-61.371,121.244-95.173,193.853-95.173
			c44.861,0,87.714,12.559,127.369,37.332c35.851,22.398,67.78,54.5,92.755,93.189c-15.68,24.312-33.961,45.898-54.428,64.268
			c-19.738,17.713-41.177,32.119-63.871,42.937c-2.115-3.016-4.307-6.345-6.652-10.082c-28.5-45.431-37.735-84.463-29.062-122.856
			l-28.322-6.397c-5.616,24.863-4.964,50.662,1.931,76.697c5.794,21.883,15.889,44.121,30.857,67.981
			c5.545,8.833,10.444,15.775,15.432,21.848l6.884,8.376l9.988-4.218c29.465-12.445,57.123-30.17,82.211-52.681
			c24.679-22.144,46.401-48.498,64.576-78.325l4.597-7.553l-4.597-7.553C579.442,273.341,542.472,235.215,500.495,208.99z
			 M192.128,356.193c3.904-4.022,7.719-8.14,11.41-12.115c9.365-10.094,18.21-19.625,28.292-27.747
			c12.725-10.249,27.286-19.318,44.512-27.73c26.699-13.038,55.744-21.243,85.179-24.157c-4.608,11.196-9.235,25.982-11.552,43.754
			c-3.157,24.234-1.445,49.209,5.095,74.231c6.374,24.389,17.375,48.842,32.776,72.935c-9.981,1.304-20.046,1.961-30.099,1.961
			c-68.113,0-132.902-29.744-183.924-84.077C180.381,367.697,186.501,361.998,192.128,356.193z M281.377,178.612l-6.646-30.721
			c16.545,0.883,43.41,4.864,70.405,19.662C323.461,168.583,302.152,172.28,281.377,178.612z"/>
	</g>
</g>
<g>
</g>
<g>
</g>
<g>
</g>
<g>
</g>
<g>
</g>
<g>
</g>
<g>
</g>
<g>
</g>
<g>
</g>
<g>
</g>
<g>
</g>
<g>
</g>
<g>
</g>
<g>
</g>
<g>
</g>
</svg>
